<svg width="1016" height="32" viewBox="0 0 1016 32" fill="none" xmlns="http://www.w3.org/2000/svg">
<g opacity="0.8">
<g clip-path="url(#clip0_1_104)">
<path d="M24.9466 14.0828C24.5017 14.5374 24.1608 15.086 23.9486 15.6896C23.7363 16.2932 23.6578 16.9369 23.7184 17.5749L23.6973 17.5534C23.7597 18.3043 23.66 19.06 23.4051 19.7677C23.1502 20.4755 22.7463 21.1182 22.2215 21.6511C21.6968 22.184 21.0637 22.5942 20.3667 22.853C19.6697 23.1118 18.9254 23.213 18.1859 23.1497L18.207 23.1711C17.3224 23.0875 16.4339 23.2829 15.6627 23.7308C14.8915 24.1787 14.2751 24.8573 13.8976 25.6739C13.52 26.4905 13.3997 27.4056 13.5531 28.2941C13.7065 29.1827 14.1261 30.0016 14.7545 30.6393C15.3831 31.2768 16.19 31.7021 17.0652 31.857C17.9405 32.012 18.8415 31.8889 19.6454 31.5049C20.4493 31.1209 21.1169 30.4943 21.5574 29.7109C21.9978 28.9273 22.1895 28.025 22.1063 27.1269L22.1287 27.1483C22.0662 26.3974 22.166 25.6417 22.4208 24.9339C22.6757 24.2262 23.0797 23.5834 23.6045 23.0506C24.1293 22.5177 24.7622 22.1076 25.4593 21.8488C26.1563 21.5899 26.9006 21.4887 27.6401 21.5521L27.6178 21.5306C28.3404 21.5966 29.0677 21.4763 29.7324 21.1808C30.397 20.8854 30.9775 20.4244 31.4199 19.8405C31.8623 19.2567 32.1525 18.5689 32.2634 17.8408C32.3744 17.1128 32.3025 16.368 32.0545 15.6757C31.8066 14.9833 31.3905 14.3657 30.8448 13.8802C30.2992 13.3946 29.6417 13.0568 28.9332 12.8979C28.2248 12.739 27.4882 12.7643 26.7919 12.9715C26.0956 13.1786 25.4621 13.5609 24.9501 14.0828H24.9466Z" fill="#282938"/>
<path d="M16.2846 20.3597L16.2623 20.3383C16.8909 20.4026 17.5257 20.3243 18.1207 20.1089C18.7158 19.8937 19.2564 19.5468 19.7032 19.0933C20.1501 18.6399 20.4922 18.0913 20.7046 17.4873C20.9171 16.8832 20.9948 16.2387 20.9319 15.6004L20.9542 15.6219C20.8918 14.871 20.9915 14.1152 21.2464 13.4076C21.5013 12.6998 21.9052 12.0571 22.43 11.5242C22.9548 10.9913 23.5878 10.5811 24.2848 10.3223C24.9818 10.0635 25.7261 9.96219 26.4657 10.0256L26.4433 10.0042C27.328 10.0885 28.2168 9.89367 28.9885 9.44633C29.7601 8.99892 30.377 8.32072 30.7551 7.5042C31.1332 6.6877 31.254 5.77264 31.1012 4.88383C30.9483 3.99502 30.529 3.17575 29.9007 2.53775C29.2724 1.89975 28.4656 1.4741 27.5902 1.31883C26.7149 1.16357 25.8137 1.28626 25.0096 1.67018C24.2054 2.0541 23.5375 2.68054 23.0969 3.46407C22.6563 4.2476 22.4645 5.15007 22.5475 6.04838L22.5264 6.02573C22.589 6.77669 22.4895 7.53249 22.2346 8.24033C21.9798 8.94818 21.5758 9.59099 21.051 10.1239C20.5262 10.6569 19.8931 11.067 19.196 11.3258C18.4989 11.5845 17.7545 11.6856 17.015 11.622L17.0361 11.6446C16.4075 11.5804 15.7727 11.6587 15.1777 11.874C14.5826 12.0892 14.042 12.4362 13.5952 12.8896C13.1484 13.343 12.8062 13.8916 12.5938 14.4956C12.3813 15.0998 12.3036 15.7442 12.3665 16.3825L12.3454 16.3611C12.4076 17.1119 12.3077 17.8675 12.0527 18.5752C11.7978 19.2828 11.3939 19.9255 10.8691 20.4583C10.3444 20.9912 9.71145 21.4013 9.01453 21.6602C8.3176 21.9191 7.57344 22.0205 6.83395 21.9573L6.85509 21.9788C5.97039 21.8944 5.08161 22.0892 4.30995 22.5366C3.5383 22.984 2.92135 23.6622 2.54326 24.4787C2.16516 25.2953 2.04433 26.2103 2.19724 27.0991C2.35014 27.9879 2.76935 28.8072 3.39767 29.4452C4.026 30.0832 4.83286 30.5088 5.70819 30.6641C6.58352 30.8193 7.48471 30.6967 8.28885 30.3128C9.09298 29.9289 9.7609 29.3024 10.2015 28.5189C10.6421 27.7354 10.8339 26.8329 10.7509 25.9345L10.7732 25.956C10.7108 25.2051 10.8105 24.4493 11.0654 23.7417C11.3203 23.0339 11.7243 22.3912 12.249 21.8583C12.7738 21.3254 13.4068 20.9152 14.1038 20.6564C14.8008 20.3976 15.5451 20.2964 16.2846 20.3597Z" fill="#282938"/>
<path d="M8.41448 17.9671C8.85952 17.5126 9.20023 16.964 9.41234 16.3603C9.62443 15.7567 9.70267 15.113 9.64147 14.4751L9.66378 14.4965C9.6013 13.7454 9.70106 12.9895 9.95606 12.2816C10.2111 11.5736 10.6153 10.9308 11.1403 10.3978C11.6654 9.86489 12.2987 9.45482 12.996 9.19616C13.6934 8.93749 14.4378 8.83653 15.1775 8.90028L15.1552 8.87882C16.0396 8.96294 16.9281 8.76804 17.6993 8.32068C18.4707 7.87331 19.0873 7.19526 19.4652 6.37901C19.843 5.56276 19.9637 4.64803 19.8108 3.75955C19.6579 2.87108 19.2388 2.05212 18.6108 1.41435C17.9827 0.77659 17.1761 0.351065 16.3011 0.195809C15.4261 0.040555 14.5253 0.163128 13.7214 0.546811C12.9175 0.930495 12.2497 1.55661 11.8091 2.33978C11.3685 3.12294 11.1766 4.02504 11.2594 4.92305L11.2383 4.90159C11.3007 5.65251 11.201 6.40821 10.9461 7.11596C10.6912 7.82371 10.2873 8.46644 9.76249 8.99931C9.23769 9.53219 8.6047 9.94235 7.90768 10.2012C7.21066 10.46 6.46641 10.5613 5.72688 10.4978L5.74801 10.5193C5.02541 10.4535 4.29814 10.574 3.6336 10.8696C2.96905 11.1651 2.38874 11.6262 1.94643 12.2102C1.50411 12.7941 1.21412 13.4819 1.10331 14.2099C0.992498 14.938 1.06446 15.6827 1.31253 16.3749C1.56059 17.0672 1.97674 17.6847 2.5224 18.1701C3.06806 18.6557 3.72557 18.9935 4.43403 19.1522C5.14248 19.311 5.87893 19.2856 6.57516 19.0784C7.27138 18.8713 7.90484 18.489 8.41684 17.9671H8.41448Z" fill="#282938"/>
<path d="M44.7852 6.07617H48.2724V23.3073H44.7852V6.07617Z" fill="#282938"/>
<path d="M50.2482 17.4075C50.2433 16.1692 50.6005 14.9574 51.2745 13.9254C51.9484 12.8934 52.9089 12.0876 54.0342 11.6104C55.1595 11.133 56.3989 11.0056 57.5957 11.2442C58.7923 11.4827 59.8924 12.0764 60.7564 12.9503C61.6205 13.8241 62.2097 14.9387 62.4494 16.1529C62.6891 17.367 62.5686 18.6261 62.103 19.7706C61.6374 20.9151 60.8478 21.8936 59.8342 22.582C58.8205 23.2705 57.6284 23.638 56.409 23.638C55.5994 23.6474 54.7961 23.4929 54.0462 23.1834C53.2961 22.8739 52.6145 22.4157 52.0408 21.8356C51.4672 21.2555 51.0132 20.5652 50.7054 19.8048C50.3976 19.0445 50.2422 18.2296 50.2482 17.4075ZM59.0824 17.4075C59.0679 16.8738 58.8987 16.3563 58.596 15.9195C58.2934 15.4829 57.8707 15.1466 57.3809 14.9525C56.8909 14.7584 56.3556 14.7153 55.8416 14.8285C55.3278 14.9418 54.8581 15.2063 54.4915 15.589C54.1248 15.9718 53.8774 16.4558 53.7801 16.9805C53.6829 17.5053 53.7402 18.0475 53.9449 18.5394C54.1494 19.0313 54.4923 19.451 54.9306 19.7461C55.3689 20.0411 55.8831 20.1986 56.409 20.1985C56.7691 20.2083 57.1273 20.1422 57.461 20.0043C57.7947 19.8666 58.0967 19.66 58.3478 19.3978C58.5991 19.1355 58.794 18.8234 58.9205 18.4808C59.0469 18.1383 59.1021 17.7728 59.0824 17.4075Z" fill="#282938"/>
<path d="M76.4688 11.5059V22.7127C76.4688 26.6781 73.4231 28.3543 70.3315 28.3543C69.243 28.4371 68.1531 28.2138 67.1813 27.7091C66.2096 27.2043 65.3934 26.4376 64.8224 25.493L67.7977 23.7464C68.0377 24.2388 68.4201 24.6451 68.8937 24.9107C69.3673 25.1764 69.9095 25.2888 70.4477 25.2331C70.7918 25.2815 71.1421 25.2507 71.4728 25.143C71.8035 25.0355 72.1062 24.8536 72.3584 24.6112C72.6106 24.3687 72.806 24.0718 72.9299 23.7424C73.0538 23.413 73.1032 23.0594 73.0743 22.7079V21.6291C72.666 22.1364 72.1462 22.5395 71.5568 22.8059C70.9673 23.0724 70.3244 23.1948 69.6799 23.1634C68.1462 23.1143 66.6915 22.4612 65.6238 21.3422C64.556 20.2233 63.959 18.7264 63.959 17.1684C63.959 15.6103 64.556 14.1134 65.6238 12.9944C66.6915 11.8756 68.1462 11.2224 69.6799 11.1733C70.3244 11.1419 70.9673 11.2644 71.5568 11.5308C72.1462 11.7973 72.666 12.2004 73.0743 12.7077V11.5035L76.4688 11.5059ZM73.0755 17.1702C73.099 16.5995 72.9537 16.0348 72.6583 15.5487C72.363 15.0626 71.9312 14.6774 71.4184 14.4425C70.9057 14.2078 70.3355 14.1342 69.7811 14.2312C69.2269 14.3283 68.7139 14.5915 68.3081 14.9871C67.9024 15.3828 67.6226 15.8926 67.5047 16.451C67.3868 17.0095 67.4361 17.591 67.6464 18.1207C67.8568 18.6504 68.2183 19.1041 68.6848 19.4234C69.1512 19.7427 69.7009 19.9129 70.2635 19.9123C70.6298 19.9382 70.9975 19.8859 71.3428 19.7589C71.6881 19.6318 72.0034 19.4326 72.2683 19.1744C72.5332 18.916 72.7419 18.6042 72.8809 18.259C73.0199 17.9139 73.0862 17.543 73.0755 17.1702Z" fill="#282938"/>
<path d="M78.4434 17.4073C78.4385 16.169 78.7957 14.9571 79.4697 13.9251C80.1437 12.8931 81.1041 12.0874 82.2294 11.6101C83.3547 11.1328 84.5942 11.0053 85.7908 11.2439C86.9876 11.4824 88.0876 12.0762 88.9517 12.9501C89.8158 13.8239 90.405 14.9385 90.6447 16.1526C90.8844 17.3667 90.7638 18.6258 90.2983 19.7703C89.8327 20.9149 89.0431 21.8933 88.0294 22.5818C87.0157 23.2703 85.8237 23.6378 84.6041 23.6378C83.7946 23.6472 82.9914 23.4927 82.2414 23.1831C81.4914 22.8737 80.8096 22.4155 80.236 21.8353C79.6624 21.2553 79.2085 20.5649 78.9007 19.8046C78.5929 19.0443 78.4374 18.2293 78.4434 17.4073ZM87.2777 17.4073C87.2631 16.8736 87.094 16.356 86.7913 15.9193C86.4887 15.4827 86.066 15.1463 85.576 14.9522C85.0862 14.7582 84.5507 14.7151 84.0369 14.8283C83.5229 14.9415 83.0533 15.2061 82.6866 15.5888C82.32 15.9715 82.0726 16.4556 81.9754 16.9803C81.8782 17.5051 81.9355 18.0473 82.14 18.5392C82.3447 19.031 82.6876 19.4508 83.1258 19.7458C83.5641 20.0409 84.0783 20.1984 84.6041 20.1983C84.9643 20.2081 85.3225 20.142 85.6562 20.0041C85.99 19.8663 86.2919 19.6597 86.5431 19.3975C86.7943 19.1353 86.9892 18.8231 87.1157 18.4805C87.2421 18.138 87.2972 17.7726 87.2777 17.4073Z" fill="#282938"/>
<path d="M92.3906 8.34231C92.3906 7.92212 92.5133 7.51136 92.7433 7.16199C92.9731 6.8126 93.2999 6.54029 93.6825 6.37949C94.0649 6.21869 94.4853 6.17662 94.8909 6.2586C95.2974 6.34057 95.6695 6.54292 95.9625 6.84004C96.2546 7.13716 96.4546 7.51571 96.5346 7.92783C96.6155 8.33994 96.5746 8.76712 96.4155 9.15532C96.2574 9.54357 95.9895 9.87533 95.6453 10.1087C95.3011 10.3422 94.8965 10.4669 94.4825 10.4669C93.93 10.4612 93.4008 10.2356 93.0095 9.83844C92.6183 9.44117 92.3961 8.90403 92.3906 8.34231ZM92.7429 11.5053H96.2314V23.3082H92.7382L92.7429 11.5053Z" fill="#282938"/>
<path d="M111.289 17.4072C111.329 18.1873 111.218 18.9677 110.96 19.7036C110.702 20.4396 110.303 21.1166 109.787 21.6956C109.271 22.2746 108.646 22.7443 107.952 23.0775C107.256 23.4109 106.501 23.6012 105.733 23.6377C105.087 23.6735 104.441 23.5629 103.842 23.3138C103.244 23.0646 102.706 22.6834 102.271 22.1975V28.0287H98.7832V11.5058H102.271V12.6145C102.707 12.129 103.244 11.748 103.843 11.4992C104.441 11.2502 105.087 11.1398 105.733 11.1755C106.501 11.2118 107.256 11.4022 107.952 11.7354C108.647 12.0688 109.272 12.5385 109.788 13.1177C110.304 13.6969 110.703 14.3741 110.961 15.1102C111.219 15.8464 111.33 16.627 111.289 17.4072ZM107.802 17.4072C107.789 16.8549 107.615 16.3188 107.302 15.8662C106.991 15.4136 106.553 15.0646 106.047 14.8628C105.54 14.6609 104.986 14.6153 104.455 14.7316C103.923 14.8479 103.436 15.1209 103.056 15.5165C102.676 15.9121 102.419 16.4127 102.318 16.9557C102.218 17.4986 102.276 18.0598 102.487 18.5689C102.699 19.078 103.054 19.5126 103.507 19.8181C103.961 20.1236 104.493 20.2865 105.037 20.2864C105.41 20.3033 105.783 20.2398 106.131 20.1001C106.479 19.9604 106.793 19.7477 107.055 19.4758C107.316 19.2039 107.517 18.8791 107.646 18.5226C107.775 18.1661 107.828 17.7861 107.802 17.4072Z" fill="#282938"/>
<path d="M122.048 19.7666C122.048 22.4812 119.725 23.6377 117.215 23.6377C116.201 23.731 115.182 23.5132 114.291 23.0124C113.4 22.5117 112.677 21.7511 112.217 20.8288L115.237 19.0823C115.36 19.5085 115.622 19.8793 115.981 20.1328C116.341 20.3862 116.774 20.5069 117.21 20.4747C118.047 20.4747 118.465 20.2149 118.465 19.7439C118.465 18.4444 112.746 19.13 112.746 15.0466C112.746 12.4726 114.886 11.1754 117.303 11.1754C118.212 11.1463 119.112 11.3652 119.909 11.8093C120.706 12.2535 121.371 12.9065 121.835 13.7006L118.86 15.3291C118.729 15.0199 118.512 14.7567 118.235 14.572C117.958 14.3874 117.634 14.2895 117.303 14.2907C116.699 14.2907 116.326 14.5291 116.326 14.9512C116.33 16.2972 122.048 15.3995 122.048 19.7666Z" fill="#282938"/>
<path d="M134.789 11.5054V23.3083H131.302V22.1984C130.9 22.6881 130.389 23.074 129.812 23.3244C129.234 23.5747 128.606 23.6824 127.979 23.6385C125.631 23.6385 123.635 21.9396 123.635 18.7505V11.5054H127.122V18.2319C127.093 18.513 127.124 18.7971 127.214 19.0646C127.305 19.3321 127.451 19.5765 127.643 19.7808C127.836 19.985 128.069 20.1442 128.329 20.2473C128.588 20.3505 128.866 20.395 129.144 20.3778C130.423 20.3778 131.305 19.6232 131.305 17.947V11.5089L134.789 11.5054Z" fill="#282938"/>
<path d="M154.783 16.0612V23.3075H151.296V16.3676C151.296 15.1873 150.737 14.4327 149.622 14.4327C148.46 14.4327 147.808 15.2588 147.808 16.6514V23.3075H144.323V16.3676C144.323 15.1873 143.764 14.4327 142.648 14.4327C141.485 14.4327 140.835 15.2588 140.835 16.6514V23.3075H137.348V11.5046H140.835V12.5895C141.197 12.1082 141.671 11.7265 142.216 11.4793C142.76 11.2321 143.356 11.1273 143.95 11.1743C144.547 11.1447 145.141 11.2726 145.674 11.5454C146.208 11.8183 146.663 12.2269 146.995 12.7314C147.381 12.2036 147.893 11.7839 148.483 11.5116C149.072 11.2394 149.72 11.1233 150.365 11.1743C153.034 11.1755 154.783 13.1105 154.783 16.0612Z" fill="#282938"/>
<path d="M157.734 11.4325C159.163 11.4325 160.322 10.2561 160.322 8.80489C160.322 7.35368 159.163 6.17725 157.734 6.17725C156.306 6.17725 155.146 7.35368 155.146 8.80489C155.146 10.2561 156.306 11.4325 157.734 11.4325Z" fill="#282938"/>
</g>
<g clip-path="url(#clip1_1_104)">
<path d="M268.434 7.80615H271.553V22.968H268.434V7.80615Z" fill="#282938"/>
<path d="M273.297 17.7737C273.297 16.6828 273.618 15.6166 274.219 14.71C274.821 13.8035 275.675 13.0974 276.674 12.6814C277.673 12.2654 278.772 12.1582 279.832 12.3733C280.891 12.5885 281.864 13.1162 282.626 13.8898C283.388 14.6633 283.905 15.6478 284.112 16.7184C284.32 17.7891 284.207 18.8976 283.789 19.9037C283.371 20.9097 282.667 21.7678 281.765 22.3693C280.863 22.9708 279.805 23.2886 278.724 23.2824C278.007 23.288 277.297 23.1491 276.634 22.8739C275.971 22.5987 275.369 22.1926 274.863 21.6796C274.358 21.1665 273.959 20.5567 273.69 19.886C273.421 19.2153 273.288 18.4971 273.297 17.7737ZM281.115 17.7737C281.103 17.3035 280.954 16.8473 280.686 16.4622C280.418 16.0771 280.044 15.7803 279.61 15.6089C279.176 15.4374 278.701 15.399 278.246 15.4982C277.79 15.5975 277.373 15.8302 277.048 16.1671C276.723 16.5041 276.503 16.9304 276.417 17.3926C276.33 17.8548 276.381 18.3326 276.562 18.7661C276.743 19.1996 277.047 19.5696 277.435 19.8297C277.823 20.09 278.279 20.2288 278.745 20.229C279.062 20.2352 279.378 20.1753 279.671 20.0531C279.964 19.9307 280.23 19.7488 280.45 19.5183C280.671 19.2879 280.842 19.014 280.953 18.7138C281.064 18.4136 281.112 18.0936 281.095 17.7737H281.115Z" fill="#282938"/>
<path d="M296.493 12.5802V22.4538C296.493 25.9374 293.789 27.4168 291.055 27.4168C290.091 27.4967 289.123 27.3034 288.262 26.8585C287.4 26.4135 286.679 25.7348 286.179 24.8986L288.81 23.3667C289.023 23.8004 289.362 24.1582 289.782 24.3926C290.201 24.6269 290.682 24.7265 291.159 24.6783C291.463 24.716 291.772 24.6856 292.063 24.589C292.354 24.4924 292.62 24.3322 292.843 24.1196C293.065 23.9071 293.238 23.6476 293.35 23.3596C293.461 23.0716 293.509 22.7623 293.488 22.4538V21.499C293.125 21.9431 292.664 22.2958 292.143 22.5289C291.621 22.762 291.053 22.8692 290.483 22.8421C289.105 22.8421 287.783 22.2893 286.808 21.3054C285.833 20.3215 285.285 18.9871 285.285 17.5957C285.285 16.2043 285.833 14.8699 286.808 13.886C287.783 12.9021 289.105 12.3493 290.483 12.3493C291.053 12.3222 291.621 12.4294 292.143 12.6625C292.664 12.8956 293.125 13.2483 293.488 13.6924V12.6432L296.493 12.5802ZM293.488 17.5642C293.509 17.0622 293.38 16.5655 293.119 16.1377C292.858 15.7101 292.476 15.371 292.022 15.1642C291.568 14.9574 291.064 14.8924 290.573 14.9774C290.082 15.0624 289.628 15.2935 289.269 15.6412C288.909 15.9888 288.661 16.437 288.556 16.9281C288.451 17.4193 288.494 17.9309 288.679 18.3972C288.865 18.8635 289.184 19.2631 289.596 19.5447C290.009 19.8263 290.495 19.9771 290.993 19.9776C291.318 20.0011 291.644 19.9557 291.95 19.8442C292.257 19.7327 292.536 19.5576 292.771 19.3302C293.007 19.1027 293.192 18.8281 293.315 18.5239C293.439 18.2197 293.498 17.8928 293.488 17.5642Z" fill="#282938"/>
<path d="M298.25 17.7738C298.25 16.6838 298.571 15.6184 299.171 14.7123C299.771 13.8061 300.624 13.1001 301.622 12.6835C302.62 12.2668 303.718 12.1583 304.777 12.3718C305.836 12.5852 306.809 13.1109 307.572 13.8823C308.335 14.6538 308.854 15.6363 309.063 16.7055C309.272 17.7748 309.163 18.8827 308.748 19.8891C308.333 20.8955 307.632 21.7551 306.733 22.3591C305.834 22.9632 304.778 23.2845 303.698 23.2825C302.98 23.2894 302.267 23.1517 301.603 22.8772C300.938 22.6027 300.334 22.1971 299.827 21.684C299.319 21.1709 298.918 20.5608 298.648 19.8893C298.377 19.2179 298.242 18.4986 298.25 17.7738ZM306.068 17.7738C306.056 17.303 305.907 16.8464 305.638 16.4612C305.37 16.076 304.995 15.7791 304.56 15.608C304.126 15.4369 303.651 15.399 303.195 15.4991C302.739 15.5993 302.322 15.833 301.997 16.171C301.673 16.509 301.454 16.9362 301.369 17.3991C301.283 17.8621 301.335 18.3402 301.518 18.7735C301.7 19.2067 302.006 19.576 302.395 19.8349C302.785 20.0939 303.242 20.231 303.708 20.2291C304.026 20.2353 304.341 20.1754 304.634 20.0532C304.928 19.9308 305.193 19.7488 305.414 19.5183C305.634 19.2879 305.805 19.0141 305.916 18.7139C306.027 18.4137 306.075 18.0937 306.058 17.7738H306.068Z" fill="#282938"/>
<path d="M310.59 9.79979C310.59 9.43039 310.698 9.06937 310.902 8.76217C311.105 8.45505 311.394 8.21562 311.732 8.0743C312.07 7.93294 312.442 7.89595 312.801 7.96802C313.16 8.04008 313.49 8.218 313.749 8.47917C314.008 8.74034 314.184 9.07314 314.255 9.43548C314.327 9.79774 314.29 10.1733 314.15 10.5145C314.01 10.8559 313.773 11.1476 313.469 11.3528C313.164 11.558 312.806 11.6675 312.44 11.6675C311.951 11.6621 311.484 11.4635 311.138 11.1144C310.792 10.7654 310.595 10.2935 310.59 9.79979ZM310.891 12.5804H314.01V22.9681H310.891V12.5804Z" fill="#282938"/>
<path d="M327.359 17.7733C327.394 18.4642 327.294 19.1552 327.063 19.8065C326.832 20.4579 326.476 21.0569 326.015 21.5688C325.554 22.0808 324.997 22.4958 324.377 22.7898C323.757 23.0838 323.085 23.2511 322.4 23.282C321.819 23.321 321.237 23.2271 320.697 23.0073C320.157 22.7874 319.673 22.4474 319.281 22.0124V27.1433H316.162V12.5795H319.281V13.5553C319.673 13.1217 320.158 12.7831 320.698 12.565C321.237 12.347 321.82 12.2551 322.4 12.2961C323.082 12.3272 323.751 12.4934 324.37 12.7855C324.988 13.0775 325.543 13.4896 326.003 13.9982C326.464 14.5068 326.821 15.102 327.053 15.7497C327.286 16.3975 327.389 17.0851 327.359 17.7733ZM324.24 17.7733C324.228 17.286 324.073 16.8131 323.796 16.4141C323.518 16.015 323.131 15.7075 322.681 15.53C322.23 15.3526 321.739 15.313 321.267 15.4164C320.795 15.5198 320.363 15.7615 320.027 16.1112C319.691 16.461 319.464 16.9032 319.375 17.3823C319.287 17.8616 319.34 18.3565 319.529 18.8052C319.719 19.2538 320.034 19.6361 320.438 19.9043C320.841 20.1725 321.314 20.3144 321.797 20.3126C322.128 20.3267 322.458 20.2701 322.765 20.1466C323.073 20.023 323.351 19.8351 323.582 19.5953C323.813 19.3556 323.991 19.0693 324.104 18.7553C324.217 18.4414 324.264 18.1067 324.24 17.7733Z" fill="#282938"/>
<path d="M336.851 19.8517C336.851 22.2441 334.772 23.2619 332.568 23.2619C331.669 23.3435 330.766 23.1512 329.977 22.7098C329.188 22.2683 328.547 21.5981 328.139 20.7856L330.821 19.2537C330.928 19.6281 331.158 19.9543 331.474 20.1777C331.79 20.4012 332.172 20.5084 332.557 20.4813C333.295 20.4813 333.67 20.2505 333.67 19.8307C333.67 18.6871 328.607 19.2957 328.607 15.6967C328.607 13.4302 330.499 12.297 332.641 12.297C333.455 12.2603 334.264 12.4466 334.981 12.8364C335.698 13.2263 336.298 13.8049 336.716 14.511L334.034 15.938C333.916 15.6673 333.721 15.4371 333.476 15.275C333.231 15.113 332.944 15.0262 332.651 15.0252C332.111 15.0252 331.788 15.235 331.788 15.6022C331.788 16.7984 336.851 16.0114 336.851 19.8517Z" fill="#282938"/>
<path d="M348.152 12.5801V22.9679H345.033V21.992C344.679 22.4239 344.229 22.7658 343.719 22.99C343.211 23.2142 342.656 23.3144 342.101 23.2826C340.022 23.2826 338.244 21.7822 338.244 18.9807V12.5801H341.363V18.5084C341.339 18.7563 341.368 19.0066 341.448 19.242C341.529 19.4774 341.66 19.6923 341.83 19.8718C342.001 20.0514 342.209 20.1914 342.439 20.2821C342.669 20.3728 342.916 20.412 343.161 20.3971C344.285 20.3971 345.074 19.7256 345.074 18.2986V12.5801H348.152Z" fill="#282938"/>
<path d="M365.826 16.5883V22.9679H362.707V16.8612C362.707 15.8119 362.218 15.1614 361.23 15.1614C360.242 15.1614 359.619 15.8853 359.619 17.113V22.9679H356.5V16.8612C356.5 15.8119 356.012 15.1614 355.024 15.1614C354.036 15.1614 353.412 15.8853 353.412 17.113V22.9679H350.293V12.5801H353.412V13.535C353.735 13.1131 354.157 12.7791 354.64 12.5629C355.123 12.3468 355.651 12.2553 356.178 12.2968C356.705 12.2691 357.231 12.3802 357.703 12.6193C358.174 12.8585 358.578 13.2174 358.87 13.6609C359.212 13.1976 359.666 12.8295 360.188 12.5909C360.71 12.3524 361.283 12.2512 361.854 12.2968C364.287 12.2968 365.826 13.9967 365.826 16.5883Z" fill="#282938"/>
<path d="M249.855 5.07804V0.618652H235.924V31.2572H249.855V26.7978C247.001 26.7978 244.264 25.6537 242.246 23.617C240.228 21.5804 239.095 18.8182 239.095 15.9379C239.095 13.0577 240.228 10.2954 242.246 8.25885C244.264 6.2222 247.001 5.07804 249.855 5.07804Z" fill="#282938"/>
<path d="M249.854 5.07764V26.7974C252.707 26.7974 255.444 25.6533 257.462 23.6166C259.48 21.5801 260.614 18.8178 260.614 15.9375C260.614 13.0573 259.48 10.295 257.462 8.25845C255.444 6.2218 252.707 5.07764 249.854 5.07764Z" fill="#282938"/>
<path d="M368.446 12.5174C369.709 12.5174 370.733 11.4839 370.733 10.2091C370.733 8.93414 369.709 7.90063 368.446 7.90063C367.182 7.90063 366.158 8.93414 366.158 10.2091C366.158 11.4839 367.182 12.5174 368.446 12.5174Z" fill="#282938"/>
</g>
<path d="M483.803 9.3468H487.184V23.0049H483.803V9.3468ZM488.525 17.8479C488.525 14.47 490.599 12.4545 493.8 12.4545C497 12.4545 499.074 14.47 499.074 17.8479C499.074 21.2259 497.046 23.2527 493.8 23.2527C490.554 23.2527 488.525 21.2822 488.525 17.8479ZM495.682 17.8479C495.682 15.9901 494.949 14.8979 493.8 14.8979C492.65 14.8979 491.929 16.0239 491.929 17.8479C491.929 19.672 492.639 20.7755 493.8 20.7755C494.96 20.7755 495.682 19.7396 495.682 17.8592V17.8479ZM500.348 23.6693H503.594C503.748 24.0121 504.009 24.296 504.338 24.4786C504.667 24.6612 505.047 24.7328 505.42 24.6826C506.704 24.6826 507.381 23.9846 507.381 22.9712V21.0795H507.313C507.044 21.6593 506.606 22.1451 506.058 22.4743C505.51 22.8034 504.875 22.9608 504.236 22.9262C501.768 22.9262 500.134 21.0457 500.134 17.8142C500.134 14.5826 501.689 12.5446 504.281 12.5446C504.94 12.5188 505.591 12.6948 506.147 13.0489C506.703 13.4032 507.137 13.9186 507.392 14.5263V12.6459H510.773V22.8923C510.773 25.3583 508.598 26.8896 505.386 26.8896C502.399 26.8896 500.539 25.5496 500.348 23.6806V23.6693ZM507.392 17.8367C507.392 16.1928 506.637 15.1568 505.442 15.1568C504.247 15.1568 503.515 16.1815 503.515 17.8367C503.515 19.4919 504.236 20.4264 505.442 20.4264C506.648 20.4264 507.392 19.5144 507.392 17.8479V17.8367ZM512.047 17.8367C512.047 14.4587 514.12 12.4432 517.321 12.4432C520.522 12.4432 522.607 14.4587 522.607 17.8367C522.607 21.2146 520.578 23.2414 517.321 23.2414C514.064 23.2414 512.047 21.2822 512.047 17.8479V17.8367ZM519.203 17.8367C519.203 15.9788 518.471 14.8866 517.321 14.8866C516.172 14.8866 515.507 16.0239 515.507 17.8592C515.507 19.6945 516.217 20.7868 517.366 20.7868C518.516 20.7868 519.203 19.7396 519.203 17.8592V17.8367ZM523.892 10.1912C523.883 9.85026 523.976 9.51426 524.158 9.22591C524.341 8.93755 524.605 8.70978 524.917 8.57156C525.229 8.43333 525.576 8.39083 525.912 8.44944C526.248 8.50806 526.56 8.66514 526.807 8.90075C527.054 9.13639 527.225 9.44004 527.299 9.77311C527.373 10.1061 527.347 10.4536 527.223 10.7716C527.099 11.0895 526.883 11.3635 526.603 11.5589C526.323 11.7543 525.992 11.8622 525.65 11.869C525.424 11.8845 525.197 11.8531 524.983 11.7768C524.769 11.7005 524.574 11.5808 524.409 11.4254C524.244 11.2699 524.113 11.0821 524.024 10.8736C523.935 10.665 523.89 10.4404 523.892 10.2138V10.1912ZM523.892 12.6684H527.273V23.0049H523.892V12.6684ZM539.547 17.8367C539.547 21.2146 538.048 23.14 535.478 23.14C534.819 23.1824 534.163 23.0214 533.599 22.6791C533.034 22.3368 532.589 21.8295 532.322 21.2259H532.255V26.3153H528.873V12.6459H532.255V14.4925H532.322C532.576 13.879 533.013 13.3585 533.574 13.0019C534.135 12.6454 534.792 12.4699 535.455 12.4995C538.048 12.5446 539.591 14.4813 539.591 17.8592L539.547 17.8367ZM536.166 17.8367C536.166 16.1928 535.41 15.1456 534.227 15.1456C533.044 15.1456 532.288 16.204 532.277 17.8367C532.266 19.4694 533.044 20.5166 534.227 20.5166C535.41 20.5166 536.166 19.4919 536.166 17.8592V17.8367ZM545.351 12.432C548.157 12.432 549.859 13.7607 549.938 15.8888H546.861C546.861 15.1568 546.253 14.6952 545.317 14.6952C544.381 14.6952 543.965 15.0555 543.965 15.5848C543.965 16.1139 544.337 16.2828 545.092 16.4405L547.255 16.8796C549.319 17.3187 550.197 18.152 550.197 19.7171C550.197 21.8565 548.247 23.2302 545.373 23.2302C542.499 23.2302 540.617 21.8565 540.471 19.7509H543.728C543.83 20.5166 544.438 20.9669 545.43 20.9669C546.421 20.9669 546.873 20.6404 546.873 20.1C546.873 19.5594 546.557 19.4469 545.746 19.2779L543.796 18.8614C541.778 18.4448 540.719 17.3751 540.719 15.7987C540.742 13.7719 542.556 12.4545 545.351 12.4545V12.432ZM561.479 22.9824H558.221V21.057H558.154C557.975 21.7034 557.58 22.2693 557.035 22.6605C556.49 23.0517 555.827 23.2448 555.156 23.2076C554.642 23.2368 554.129 23.1555 553.649 22.9692C553.17 22.7828 552.735 22.4959 552.377 22.1276C552.018 21.7593 551.742 21.3184 551.568 20.8345C551.394 20.3507 551.327 19.8352 551.369 19.323V12.6459H554.751V18.5461C554.751 19.7734 555.382 20.4264 556.43 20.4264C556.676 20.427 556.919 20.375 557.142 20.2739C557.367 20.1729 557.567 20.0253 557.729 19.8408C557.891 19.6563 558.012 19.4393 558.083 19.2044C558.155 18.9695 558.175 18.7219 558.143 18.4785V12.6459H561.525L561.479 22.9824ZM563.113 12.6459H566.382V14.6389H566.449C566.629 14.001 567.015 13.4406 567.547 13.0453C568.079 12.65 568.728 12.4423 569.391 12.4545C570.066 12.4006 570.736 12.6023 571.269 13.0195C571.801 13.4368 572.157 14.0391 572.265 14.7064H572.333C572.537 14.032 572.96 13.4446 573.536 13.0368C574.112 12.6291 574.806 12.4242 575.511 12.4545C575.97 12.4391 576.429 12.5205 576.855 12.6934C577.281 12.8663 577.666 13.1269 577.985 13.4582C578.304 13.7896 578.55 14.1842 578.706 14.6165C578.862 15.0488 578.925 15.5091 578.892 15.9676V23.0049H575.511V16.8683C575.511 15.7424 575.003 15.2244 574.057 15.2244C573.846 15.2226 573.636 15.2661 573.444 15.3519C573.251 15.4377 573.079 15.5638 572.939 15.7217C572.799 15.8797 572.695 16.0658 572.633 16.2675C572.571 16.4691 572.553 16.6817 572.58 16.8909V23.0049H569.369V16.8233C569.369 15.7874 568.862 15.2244 567.937 15.2244C567.724 15.2245 567.513 15.2698 567.318 15.3573C567.124 15.4448 566.949 15.5727 566.807 15.7322C566.666 15.8919 566.56 16.0796 566.496 16.2832C566.433 16.4868 566.413 16.7016 566.438 16.9134V23.0049H563.057L563.113 12.6459Z" fill="#282938"/>
<path d="M474.346 9.96624C473.773 8.65605 473.014 7.435 472.092 6.34062C470.73 4.67455 469.03 3.31555 467.105 2.35308C465.179 1.39061 463.071 0.846471 460.92 0.756497C458.768 0.666522 456.622 1.03274 454.623 1.83105C452.624 2.62937 450.816 3.84167 449.319 5.38819C447.823 6.93469 446.671 8.78034 445.939 10.8037C445.208 12.827 444.914 14.9821 445.076 17.1271C445.239 19.2721 445.854 21.3585 446.882 23.2488C447.91 25.1392 449.326 26.7907 451.039 28.0946C452.138 28.9479 453.352 29.6417 454.646 30.1551C456.459 30.8976 458.4 31.28 460.36 31.2811C464.405 31.2722 468.282 29.6612 471.14 26.8012C473.999 23.9413 475.606 20.0657 475.609 16.024C475.612 13.9393 475.182 11.8766 474.346 9.96624ZM460.348 3.8522C462.108 3.85201 463.847 4.23631 465.443 4.97818C465.054 5.14614 464.644 5.26345 464.225 5.32724C462.847 5.52664 461.569 6.16618 460.584 7.15039C459.599 8.13461 458.959 9.41069 458.759 10.7883C458.672 11.5608 458.32 12.2795 457.763 12.8231C457.207 13.3667 456.48 13.7019 455.705 13.7721C454.326 13.9715 453.049 14.611 452.064 15.5952C451.078 16.5795 450.438 17.8556 450.239 19.2331C450.171 19.9677 449.857 20.658 449.348 21.1923C448.47 19.3382 448.075 17.2921 448.201 15.2446C448.327 13.1971 448.97 11.2147 450.069 9.4818C451.167 7.749 452.687 6.32206 454.487 5.33382C456.286 4.34558 458.306 3.82814 460.36 3.82968L460.348 3.8522ZM451.028 23.906C451.163 23.7821 451.298 23.6694 451.433 23.5343C452.436 22.5631 453.08 21.2811 453.259 19.8974C453.332 19.1197 453.68 18.3932 454.24 17.8481C454.779 17.2876 455.504 16.9432 456.28 16.8798C457.659 16.6804 458.936 16.0408 459.921 15.0566C460.906 14.0725 461.546 12.7963 461.746 11.4188C461.795 10.6053 462.144 9.83886 462.726 9.2682C463.279 8.71853 464.011 8.38664 464.789 8.3336C466.056 8.15949 467.237 7.59689 468.17 6.72345C469.233 7.60405 470.133 8.66341 470.83 9.85371C470.787 9.91149 470.738 9.96437 470.683 10.0113C470.145 10.5768 469.421 10.9287 468.644 11.0022C467.263 11.1981 465.984 11.8366 464.998 12.8214C464.012 13.8062 463.373 15.0843 463.177 16.4632C463.098 17.2383 462.753 17.9622 462.2 18.5122C461.648 19.0622 460.922 19.4044 460.146 19.4808C458.763 19.6787 457.481 20.317 456.49 21.3008C455.499 22.2846 454.852 23.5615 454.646 24.9418C454.585 25.4921 454.396 26.0206 454.093 26.4845C452.937 25.7985 451.901 24.9274 451.028 23.906ZM460.348 28.2522C459.205 28.2534 458.067 28.0942 456.967 27.7793C457.343 27.079 457.588 26.3157 457.689 25.5273C457.768 24.7539 458.111 24.0314 458.661 23.4816C459.212 22.9319 459.935 22.5886 460.709 22.5097C462.09 22.3126 463.37 21.674 464.357 20.6896C465.345 19.7052 465.986 18.4278 466.187 17.0487C466.265 16.2753 466.609 15.5527 467.159 15.003C467.71 14.4533 468.433 14.11 469.207 14.031C470.246 13.896 471.237 13.5095 472.092 12.9051C472.567 14.7043 472.624 16.5884 472.257 18.4126C471.89 20.237 471.11 21.9531 469.976 23.4294C468.842 24.9056 467.385 26.1029 465.716 26.9291C464.047 27.7553 462.211 28.1887 460.348 28.1959V28.2522Z" fill="#282938"/>
<g clip-path="url(#clip2_1_104)">
<path d="M701.872 25.4926C701.101 25.5344 700.339 25.3154 699.708 24.871C699.444 24.6757 699.232 24.4192 699.09 24.1235C698.947 23.8279 698.879 23.5021 698.891 23.1744V11.1685C698.885 11.1176 698.89 11.066 698.907 11.0176C698.924 10.9692 698.951 10.9252 698.987 10.8889C699.024 10.8527 699.068 10.8253 699.116 10.8085C699.165 10.7919 699.216 10.7865 699.267 10.7928H701.444C701.691 10.7928 701.807 10.9224 701.807 11.1685V22.2418C701.807 22.734 702.028 22.9801 702.481 22.9801C702.674 22.988 702.866 22.9662 703.052 22.9154C703.311 22.9154 703.453 22.993 703.466 23.2262L703.661 24.8451C703.67 24.8923 703.669 24.941 703.658 24.9877C703.647 25.0346 703.626 25.0785 703.597 25.1166C703.567 25.1545 703.53 25.1859 703.487 25.2083C703.445 25.2307 703.398 25.2438 703.35 25.2466C702.873 25.404 702.374 25.487 701.872 25.4926Z" fill="#282938"/>
<path d="M714.121 24.1067C713.027 25.01 711.652 25.5042 710.233 25.5042C708.814 25.5042 707.439 25.01 706.345 24.1067C705.383 23.1366 704.844 21.8263 704.844 20.4609C704.844 19.0954 705.383 17.7851 706.345 16.815C707.441 15.9164 708.815 15.4253 710.233 15.4253C711.651 15.4253 713.025 15.9164 714.121 16.815C715.061 17.7941 715.585 19.098 715.585 20.4545C715.585 21.8108 715.061 23.1147 714.121 24.0938V24.1067ZM708.393 22.3971C708.9 22.8567 709.561 23.1113 710.246 23.1113C710.931 23.1113 711.592 22.8567 712.099 22.3971C712.559 21.8692 712.812 21.1929 712.812 20.4933C712.812 19.7935 712.559 19.1174 712.099 18.5894C711.592 18.1298 710.931 17.8753 710.246 17.8753C709.561 17.8753 708.9 18.1298 708.393 18.5894C707.933 19.1174 707.68 19.7935 707.68 20.4933C707.68 21.1929 707.933 21.8692 708.393 22.3971Z" fill="#282938"/>
<path d="M727.575 15.7527C727.821 15.7527 727.938 15.8822 727.938 16.1283V25.4144C727.96 26.0412 727.843 26.6651 727.594 27.2409C727.345 27.8167 726.971 28.3297 726.499 28.7429C725.451 29.636 724.103 30.0987 722.727 30.0381C721.485 30.0818 720.258 29.7427 719.215 29.0668C718.769 28.7743 718.389 28.3935 718.097 27.9479C717.805 27.5024 717.607 27.0015 717.517 26.4765C717.517 26.2174 717.517 26.1009 717.867 26.1009H720.045C720.137 26.1041 720.227 26.1338 720.302 26.1867C720.378 26.2395 720.437 26.3132 720.472 26.3988C720.613 26.7922 720.895 27.1196 721.263 27.3183C721.711 27.5494 722.21 27.6652 722.714 27.655C723.019 27.6718 723.323 27.6276 723.61 27.5253C723.897 27.423 724.161 27.2646 724.386 27.0593C724.592 26.8445 724.752 26.5904 724.857 26.3121C724.961 26.0339 725.009 25.7373 724.996 25.4403V24.6244C724.216 25.1974 723.267 25.4937 722.3 25.4662C721.623 25.4909 720.948 25.3785 720.315 25.1359C719.683 24.8933 719.106 24.5256 718.619 24.0545C717.684 23.0885 717.162 21.7976 717.162 20.4541C717.162 19.1105 717.684 17.8196 718.619 16.8536C719.108 16.3868 719.686 16.0225 720.318 15.7823C720.95 15.5421 721.624 15.4307 722.3 15.4549C723.295 15.4286 724.269 15.744 725.06 16.3485V16.1412C725.054 16.0917 725.06 16.0413 725.076 15.9939C725.091 15.9466 725.118 15.9033 725.153 15.8674C725.187 15.8314 725.23 15.8036 725.276 15.786C725.323 15.7684 725.373 15.7615 725.423 15.7657L727.575 15.7527ZM722.546 23.1609C722.88 23.1712 723.212 23.1082 723.519 22.9761C723.826 22.8441 724.1 22.6463 724.322 22.3968C724.752 21.8408 724.986 21.1574 724.986 20.4541C724.986 19.7508 724.752 19.0675 724.322 18.5114C724.1 18.2652 723.828 18.0704 723.524 17.9407C723.219 17.8109 722.89 17.7493 722.559 17.7602C722.221 17.7496 721.885 17.8125 721.574 17.9444C721.263 18.0763 720.984 18.2742 720.757 18.5243C720.28 19.0562 720.029 19.7531 720.058 20.467C720.034 21.1739 720.28 21.8635 720.744 22.3968C720.972 22.6462 721.251 22.8437 721.562 22.9756C721.873 23.1074 722.208 23.1707 722.546 23.1609Z" fill="#282938"/>
<path d="M739.121 24.1059C738.024 25.0045 736.65 25.4956 735.232 25.4956C733.814 25.4956 732.44 25.0045 731.344 24.1059C730.404 23.1246 729.879 21.8186 729.879 20.4601C729.879 19.1015 730.404 17.7954 731.344 16.8142C732.441 15.9179 733.815 15.4282 735.232 15.4282C736.65 15.4282 738.023 15.9179 739.121 16.8142C740.06 17.7932 740.585 19.0972 740.585 20.4536C740.585 21.81 740.06 23.1139 739.121 24.0929V24.1059ZM733.379 22.3963C733.628 22.6325 733.92 22.817 734.241 22.9393C734.561 23.0616 734.903 23.1192 735.245 23.1086C735.586 23.1174 735.925 23.0591 736.243 22.9369C736.561 22.8145 736.852 22.6309 737.099 22.3963C737.551 21.8648 737.799 21.19 737.799 20.4924C737.799 19.7949 737.551 19.1201 737.099 18.5886C736.852 18.354 736.561 18.1703 736.243 18.048C735.925 17.9258 735.586 17.8674 735.245 17.8762C734.903 17.8657 734.561 17.9233 734.241 18.0455C733.92 18.1678 733.628 18.3524 733.379 18.5886C732.927 19.1201 732.679 19.7949 732.679 20.4924C732.679 21.19 732.927 21.8648 733.379 22.3963Z" fill="#282938"/>
<path d="M745.264 13.5513C744.922 13.851 744.482 14.0161 744.026 14.0161C743.571 14.0161 743.131 13.851 742.789 13.5513C742.633 13.4048 742.51 13.2281 742.425 13.0322C742.341 12.8362 742.297 12.625 742.297 12.4116C742.297 12.1981 742.341 11.9869 742.425 11.791C742.51 11.595 742.633 11.4184 742.789 11.2719C743.135 10.9796 743.573 10.8193 744.026 10.8193C744.48 10.8193 744.918 10.9796 745.264 11.2719C745.42 11.4184 745.543 11.595 745.628 11.791C745.712 11.9869 745.756 12.1981 745.756 12.4116C745.756 12.625 745.712 12.8362 745.628 13.0322C745.543 13.2281 745.42 13.4048 745.264 13.5513ZM745.536 25.4925C744.766 25.5303 744.005 25.3116 743.372 24.8707C743.112 24.6726 742.904 24.4151 742.764 24.12C742.624 23.8249 742.557 23.5005 742.568 23.1741V16.1287C742.562 16.0778 742.568 16.0261 742.584 15.9777C742.601 15.9293 742.628 15.8853 742.665 15.8491C742.701 15.8129 742.745 15.7854 742.793 15.7687C742.842 15.7521 742.893 15.7467 742.944 15.753H745.122C745.368 15.753 745.485 15.8826 745.485 16.1287V22.2417C745.485 22.7338 745.705 22.9799 746.146 22.9799C746.342 22.987 746.539 22.9651 746.729 22.9151C746.988 22.9151 747.131 22.9929 747.144 23.2259L747.338 24.8449C747.347 24.8921 747.346 24.9407 747.335 24.9876C747.324 25.0344 747.303 25.0783 747.274 25.1163C747.244 25.1544 747.207 25.1857 747.165 25.2081C747.122 25.2306 747.075 25.2436 747.027 25.2464C746.546 25.4047 746.043 25.4877 745.536 25.4925Z" fill="#282938"/>
<path d="M755.349 15.4419C756.03 15.4151 756.708 15.5251 757.345 15.7653C757.982 16.0056 758.563 16.3714 759.056 16.8407C759.973 17.8237 760.483 19.1172 760.483 20.4607C760.483 21.804 759.973 23.0977 759.056 24.0806C758.567 24.5541 757.985 24.9233 757.348 25.166C756.711 25.4086 756.031 25.5197 755.349 25.4922C754.379 25.5138 753.428 25.2182 752.641 24.6504V29.3258C752.641 29.5719 752.511 29.6885 752.265 29.6885H750.088C750.038 29.6977 749.987 29.6948 749.938 29.6799C749.89 29.6649 749.846 29.6385 749.81 29.6028C749.775 29.567 749.748 29.5232 749.733 29.4749C749.718 29.4267 749.715 29.3755 749.725 29.3258V18.7057C749.74 18.6019 749.731 18.4959 749.698 18.3962C749.665 18.2965 749.609 18.2059 749.534 18.1317C749.46 18.0575 749.37 18.0016 749.27 17.9686C749.17 17.9356 749.064 17.9264 748.96 17.9415H748.532C748.247 17.9415 748.105 17.838 748.105 17.6307V16.1025C748.098 16.0079 748.124 15.9139 748.178 15.8362C748.232 15.7583 748.312 15.7015 748.403 15.6751C748.851 15.5122 749.325 15.4333 749.802 15.4419C750.278 15.3999 750.755 15.5007 751.173 15.7314C751.591 15.9622 751.931 16.3123 752.148 16.7371C752.566 16.3151 753.065 15.9826 753.615 15.76C754.166 15.5372 754.756 15.429 755.349 15.4419ZM753.328 22.3969C753.559 22.6382 753.836 22.8303 754.144 22.9615C754.451 23.0927 754.782 23.1603 755.116 23.1603C755.451 23.1603 755.782 23.0927 756.089 22.9615C756.396 22.8303 756.674 22.6382 756.905 22.3969C757.392 21.8543 757.648 21.1434 757.618 20.4154C757.652 19.6866 757.395 18.9741 756.905 18.4337C756.674 18.1924 756.396 18.0003 756.089 17.8691C755.782 17.7379 755.451 17.6703 755.116 17.6703C754.782 17.6703 754.451 17.7379 754.144 17.8691C753.836 18.0003 753.559 18.1924 753.328 18.4337C752.856 18.9836 752.611 19.6917 752.641 20.4154C752.615 21.1383 752.86 21.845 753.328 22.3969Z" fill="#282938"/>
<path d="M766.598 25.4918C765.434 25.5396 764.281 25.2615 763.267 24.6889C762.86 24.4441 762.514 24.1109 762.253 23.714C761.993 23.3172 761.826 22.8669 761.763 22.3965C761.763 22.1374 761.855 22.008 762.139 22.008H764.045C764.135 22.0115 764.224 22.04 764.299 22.0902C764.375 22.1405 764.434 22.2106 764.472 22.2929C764.744 22.9922 765.457 23.342 766.598 23.342C766.996 23.3601 767.392 23.28 767.752 23.1088C767.875 23.0528 767.982 22.9643 768.06 22.8525C768.137 22.7407 768.183 22.61 768.193 22.4742C768.193 22.1374 767.985 21.9043 767.57 21.7489C767.078 21.5853 766.569 21.4767 766.054 21.4252C765.443 21.356 764.837 21.2478 764.239 21.1013C763.658 20.9699 763.13 20.6677 762.723 20.2336C762.483 19.9385 762.307 19.5973 762.204 19.2311C762.101 18.865 762.076 18.4817 762.128 18.1051C762.18 17.7285 762.31 17.3667 762.508 17.0422C762.706 16.7177 762.969 16.4374 763.28 16.2187C764.215 15.624 765.31 15.3343 766.416 15.3898C767.488 15.3536 768.548 15.6183 769.475 16.1539C769.849 16.3655 770.171 16.658 770.418 17.0097C770.664 17.3615 770.829 17.7637 770.901 18.1873C770.901 18.4463 770.784 18.5758 770.551 18.5758H768.633C768.552 18.5806 768.472 18.561 768.402 18.5194C768.333 18.4778 768.278 18.4161 768.244 18.3427C768.116 18.0359 767.874 17.7902 767.57 17.6563C767.226 17.4767 766.843 17.3876 766.455 17.3973C766.075 17.3766 765.696 17.4523 765.353 17.6175C765.233 17.664 765.129 17.7456 765.056 17.8518C764.982 17.958 764.941 18.0838 764.939 18.2132C764.948 18.3903 765.012 18.5601 765.124 18.6976C765.236 18.8351 765.389 18.9332 765.561 18.9774C766.059 19.1647 766.576 19.2951 767.103 19.3659C767.71 19.4456 768.311 19.558 768.905 19.7026C769.486 19.8339 770.014 20.1362 770.422 20.5703C770.639 20.8095 770.808 21.0895 770.917 21.394C771.026 21.6985 771.073 22.0217 771.056 22.3447C771.068 22.7924 770.963 23.2353 770.751 23.6303C770.54 24.0253 770.23 24.3587 769.851 24.5982C768.883 25.2194 767.748 25.5312 766.598 25.4918Z" fill="#282938"/>
<path d="M784.757 24.8449C784.764 24.8908 784.762 24.9379 784.752 24.9831C784.741 25.0283 784.72 25.0708 784.692 25.1083C784.665 25.1457 784.63 25.1771 784.59 25.2009C784.55 25.2245 784.505 25.24 784.459 25.2463C783.986 25.4007 783.492 25.4836 782.995 25.4924C782.502 25.5434 782.004 25.4665 781.55 25.269C781.096 25.0716 780.701 24.7605 780.402 24.3657C779.487 25.1522 778.303 25.5558 777.098 25.4924C776.537 25.5182 775.978 25.4266 775.456 25.2237C774.934 25.0206 774.46 24.7108 774.064 24.3139C773.672 23.8979 773.367 23.4071 773.169 22.8708C772.971 22.3344 772.884 21.7636 772.911 21.1925V16.1286C772.911 15.8825 773.027 15.7529 773.274 15.7529H775.452C775.697 15.7529 775.814 15.8825 775.814 16.1286V20.804C775.791 21.3865 775.99 21.9562 776.372 22.3971C776.562 22.599 776.794 22.7578 777.05 22.8628C777.308 22.9678 777.584 23.0165 777.862 23.0058C778.146 23.0182 778.43 22.9742 778.697 22.8764C778.963 22.7786 779.209 22.6289 779.417 22.4359C779.615 22.2325 779.769 21.9908 779.869 21.7257C779.969 21.4606 780.014 21.1778 780.001 20.8947V16.1286C780.001 15.8825 780.117 15.7529 780.363 15.7529H782.567C782.813 15.7529 782.929 15.8825 782.929 16.1286V22.2287C782.929 22.7338 783.15 22.9799 783.578 22.9799C783.778 22.9876 783.98 22.9658 784.174 22.915C784.223 22.9013 784.274 22.8989 784.325 22.9079C784.375 22.9169 784.422 22.937 784.463 22.967C784.504 22.9969 784.538 23.0357 784.562 23.0806C784.586 23.1254 784.6 23.1751 784.602 23.226L784.757 24.8449Z" fill="#282938"/>
<path d="M805.351 24.8452C805.362 24.8915 805.363 24.9399 805.354 24.9868C805.344 25.0336 805.325 25.0778 805.296 25.1162C805.267 25.1546 805.232 25.1862 805.189 25.2087C805.147 25.2313 805.1 25.2442 805.053 25.2467C804.571 25.4032 804.068 25.4862 803.562 25.4927C802.792 25.5324 802.03 25.3137 801.397 24.8711C801.124 24.6814 800.902 24.4274 800.75 24.1314C800.599 23.8355 800.523 23.5068 800.53 23.1744V20.1308C800.556 19.5501 800.362 18.9807 799.984 18.5378C799.803 18.3354 799.579 18.1758 799.327 18.0705C799.077 17.9653 798.806 17.917 798.533 17.9291C798.288 17.9198 798.044 17.9664 797.82 18.0651C797.595 18.1638 797.396 18.3122 797.238 18.499C796.895 18.933 796.72 19.4753 796.745 20.0273V24.8063C796.745 25.0524 796.628 25.1819 796.382 25.1819H794.191C794.141 25.1882 794.089 25.1828 794.04 25.1662C793.992 25.1496 793.948 25.122 793.912 25.0859C793.876 25.0496 793.848 25.0056 793.831 24.9571C793.814 24.9087 793.809 24.8571 793.815 24.8063V20.1308C793.844 19.5565 793.664 18.991 793.31 18.5378C793.152 18.3475 792.954 18.1942 792.73 18.089C792.506 17.9838 792.261 17.9292 792.014 17.9291C791.749 17.9185 791.486 17.9637 791.24 18.0619C790.994 18.1601 790.773 18.3091 790.589 18.499C790.218 18.9192 790.027 19.4679 790.057 20.0273V24.8063C790.063 24.8571 790.058 24.9087 790.041 24.9571C790.024 25.0056 789.997 25.0496 789.96 25.0859C789.924 25.122 789.88 25.1496 789.832 25.1662C789.784 25.1828 789.732 25.1882 789.681 25.1819H787.569C787.322 25.1819 787.205 25.0524 787.205 24.8063V18.7062C787.221 18.6024 787.211 18.4964 787.179 18.3966C787.146 18.297 787.089 18.2064 787.015 18.1322C786.941 18.058 786.85 18.0021 786.75 17.9691C786.651 17.936 786.545 17.9269 786.441 17.9421H786.013C785.728 17.9421 785.585 17.8385 785.585 17.6312V16.103C785.579 16.0084 785.604 15.9144 785.659 15.8366C785.713 15.7589 785.792 15.702 785.884 15.6756C786.331 15.5127 786.806 15.4337 787.283 15.4424C787.741 15.4035 788.2 15.4946 788.609 15.7055C789.017 15.9163 789.358 16.2382 789.591 16.634C790.027 16.2198 790.546 15.9003 791.112 15.6953C791.678 15.4903 792.281 15.4042 792.883 15.4424C793.466 15.414 794.049 15.5234 794.582 15.762C795.116 16.0005 795.586 16.3613 795.954 16.8153C796.383 16.3495 796.91 15.9847 797.497 15.7472C798.085 15.5098 798.717 15.4057 799.35 15.4424C799.916 15.416 800.48 15.5071 801.009 15.71C801.538 15.9128 802.019 16.223 802.421 16.621C802.815 17.0361 803.12 17.5268 803.319 18.0633C803.517 18.5999 803.604 19.1711 803.575 19.7423V22.2419C803.575 22.7341 803.795 22.9802 804.21 22.9802C804.411 22.9896 804.612 22.9677 804.806 22.9154C805.074 22.9154 805.216 23.019 805.234 23.2263L805.351 24.8452Z" fill="#282938"/>
<path d="M653.373 14.0697C654.329 10.2293 656.544 6.81882 659.664 4.3815C662.784 1.94419 666.631 0.620117 670.592 0.620117C674.552 0.620117 678.399 1.94419 681.519 4.3815C684.639 6.81882 686.854 10.2293 687.81 14.0697H686.255C683.631 14.0311 681.061 14.8147 678.906 16.3104C678.781 16.4004 678.652 16.4825 678.517 16.5564H678.336C678.201 16.4825 678.071 16.4004 677.947 16.3104C675.772 14.8493 673.212 14.069 670.592 14.069C667.971 14.069 665.411 14.8493 663.236 16.3104C663.112 16.4004 662.982 16.4825 662.847 16.5564H662.666C662.531 16.4825 662.402 16.4004 662.277 16.3104C660.122 14.8147 657.552 14.0311 654.928 14.0697H653.373ZM683.455 22.1903C684.253 21.569 685.243 21.2439 686.255 21.2708H688.341V17.1133H686.255C684.473 17.0918 682.732 17.646 681.291 18.6934C680.48 19.2909 679.499 19.6132 678.491 19.6132C677.484 19.6132 676.503 19.2909 675.692 18.6934C674.214 17.6656 672.457 17.1146 670.656 17.1146C668.856 17.1146 667.099 17.6656 665.621 18.6934C664.81 19.2909 663.829 19.6132 662.822 19.6132C661.814 19.6132 660.833 19.2909 660.022 18.6934C658.563 17.6326 656.797 17.0777 654.993 17.1133H652.842V21.2708H654.928C655.94 21.2439 656.93 21.569 657.728 22.1903C659.203 23.2188 660.958 23.7703 662.757 23.7703C664.555 23.7703 666.311 23.2188 667.786 22.1903C668.585 21.5708 669.574 21.2461 670.585 21.2708C671.597 21.2418 672.587 21.567 673.385 22.1903C674.862 23.2181 676.619 23.7691 678.42 23.7691C680.22 23.7691 681.977 23.2181 683.455 22.1903ZM683.455 29.6244C684.253 29.0031 685.243 28.678 686.255 28.7049H688.341V24.5475H686.255C684.473 24.5259 682.732 25.0801 681.291 26.1275C680.48 26.725 679.499 27.0473 678.491 27.0473C677.484 27.0473 676.503 26.725 675.692 26.1275C674.214 25.0996 672.457 24.5487 670.656 24.5487C668.856 24.5487 667.099 25.0996 665.621 26.1275C664.81 26.725 663.829 27.0473 662.822 27.0473C661.814 27.0473 660.833 26.725 660.022 26.1275C658.563 25.0667 656.797 24.5118 654.993 24.5475H652.842V28.7049H654.928C655.94 28.678 656.93 29.0031 657.728 29.6244C659.203 30.653 660.958 31.2044 662.757 31.2044C664.555 31.2044 666.311 30.653 667.786 29.6244C668.585 29.005 669.574 28.6802 670.585 28.7049C671.597 28.6759 672.587 29.0011 673.385 29.6244C674.862 30.6522 676.619 31.2033 678.42 31.2033C680.22 31.2033 681.977 30.6522 683.455 29.6244Z" fill="#282938"/>
</g>
<g clip-path="url(#clip3_1_104)">
<path d="M918.5 9.90005H921.92V23.7674H918.5V9.90005ZM923.283 18.5512C923.283 15.1163 925.414 13.0575 928.61 13.0575C931.806 13.0575 933.937 15.1163 933.937 18.5512C933.937 21.9859 931.88 24.0661 928.61 24.0661C925.339 24.0661 923.283 22.0606 923.283 18.5512ZM930.549 18.5512C930.549 16.6631 929.814 15.5537 928.642 15.5537C927.47 15.5537 926.746 16.6204 926.746 18.5512C926.746 20.4819 927.47 21.5379 928.642 21.5379C929.814 21.5379 930.57 20.4819 930.57 18.5618L930.549 18.5512ZM935.3 24.4821H938.603C938.753 24.8382 939.016 25.1351 939.35 25.3277C939.685 25.5203 940.073 25.598 940.456 25.5488C941.767 25.5488 942.448 24.8448 942.448 23.7994V21.8793H942.459C942.177 22.4772 941.72 22.9755 941.15 23.3087C940.58 23.6419 939.922 23.7944 939.263 23.746C936.76 23.746 935.098 21.8366 935.098 18.5512C935.098 15.2656 936.685 13.2175 939.359 13.2175C940.035 13.1813 940.705 13.3558 941.277 13.7169C941.849 14.078 942.296 14.6079 942.555 15.2336H942.459V13.3029H945.847V23.6927C945.847 26.1995 943.631 27.7676 940.371 27.7676C937.409 27.7569 935.513 26.4022 935.321 24.4928L935.3 24.4821ZM942.459 18.5512C942.459 16.8764 941.692 15.8203 940.478 15.8203C939.263 15.8203 938.517 16.8871 938.517 18.5512C938.517 20.2152 939.252 21.1966 940.478 21.1966C941.703 21.1966 942.459 20.2899 942.459 18.5512ZM947.2 18.5512C947.2 15.1163 949.33 13.0575 952.526 13.0575C955.722 13.0575 957.853 15.1163 957.853 18.5512C957.853 21.9859 955.786 24.0661 952.526 24.0661C949.266 24.0661 947.221 22.0606 947.221 18.5512H947.2ZM954.465 18.5512C954.465 16.6631 953.719 15.5537 952.558 15.5537C951.397 15.5537 950.662 16.6204 950.662 18.5512C950.662 20.4819 951.386 21.5379 952.558 21.5379C953.73 21.5379 954.486 20.4819 954.486 18.5618L954.465 18.5512ZM959.238 10.7747C959.223 10.4259 959.313 10.0807 959.495 9.78333C959.678 9.48599 959.945 9.2502 960.263 9.10628C960.581 8.96237 960.934 8.91689 961.278 8.97567C961.621 9.03453 961.94 9.19495 962.191 9.43639C962.443 9.67782 962.617 9.98914 962.691 10.3304C962.765 10.6716 962.735 11.0271 962.605 11.3512C962.475 11.6752 962.251 11.9529 961.963 12.1487C961.674 12.3444 961.333 12.4492 960.985 12.4495C960.762 12.4552 960.54 12.4165 960.333 12.3357C960.125 12.2548 959.935 12.1335 959.775 11.9787C959.614 11.8238 959.486 11.6387 959.397 11.4339C959.309 11.229 959.262 11.0086 959.259 10.7854L959.238 10.7747ZM959.238 13.2922H962.7V23.81H959.291L959.238 13.2922ZM975.153 18.5512C975.153 21.9753 973.62 23.9594 971.01 23.9594C970.341 24.0007 969.676 23.8356 969.105 23.4865C968.533 23.1374 968.083 22.6211 967.814 22.0073H967.75V27.1916H964.33V13.3242H967.728V15.2016H967.793C968.052 14.5758 968.499 14.0453 969.07 13.6826C969.642 13.3199 970.312 13.1427 970.988 13.1749C973.672 13.1535 975.217 15.127 975.217 18.5618L975.153 18.5512ZM971.67 18.5512C971.67 16.8871 970.892 15.8097 969.688 15.8097C968.484 15.8097 967.728 16.8764 967.718 18.5512C967.707 20.2259 968.484 21.2819 969.688 21.2819C970.892 21.2819 971.734 20.2899 971.734 18.5618L971.67 18.5512ZM980.991 13.0468C983.857 13.0468 985.636 14.4016 985.657 16.5777H982.536C982.536 15.8203 981.908 15.351 980.97 15.351C980.033 15.351 979.585 15.7137 979.585 16.2577C979.585 16.8017 979.98 16.9724 980.768 17.1324L982.962 17.5804C985.093 18.0285 985.945 18.8819 985.945 20.4713C985.945 22.6046 983.974 24.0554 981.045 24.0554C978.115 24.0554 976.208 22.6473 976.07 20.5033H979.383C979.478 21.2819 980.096 21.7406 981.098 21.7406C982.099 21.7406 982.568 21.4206 982.568 20.8552C982.568 20.2899 982.249 20.1939 981.428 20.0232L979.447 19.6072C977.391 19.1699 976.314 18.0925 976.314 16.4817C976.379 14.3909 978.168 13.0575 981.055 13.0575L980.991 13.0468ZM997.397 23.7994H994.084V21.8259H994.02C993.835 22.4842 993.431 23.0595 992.875 23.457C992.32 23.8546 991.645 24.0505 990.963 24.0127C990.447 24.0296 989.935 23.9371 989.459 23.7416C988.982 23.5459 988.552 23.2516 988.197 22.8779C987.842 22.5042 987.57 22.0595 987.398 21.5731C987.226 21.0866 987.16 20.5694 987.202 20.0552V13.3029H990.622V19.3192C990.622 20.5566 991.272 21.2286 992.337 21.2286C992.587 21.2267 992.833 21.1712 993.06 21.0657C993.287 20.9602 993.488 20.8073 993.651 20.6172C993.813 20.427 993.933 20.2043 994.003 19.9638C994.072 19.7233 994.088 19.4707 994.052 19.2232V13.3029H997.462L997.397 23.7994ZM999.048 13.2922H1002.37V15.319H1002.45C1002.63 14.6697 1003.02 14.0997 1003.57 13.6983C1004.11 13.2968 1004.77 13.0865 1005.44 13.1002C1006.12 13.0414 1006.79 13.2371 1007.33 13.6495C1007.87 14.0618 1008.24 14.6609 1008.36 15.3296H1008.51C1008.72 14.6574 1009.15 14.0743 1009.73 13.6711C1010.31 13.2679 1011 13.0672 1011.7 13.1002C1012.17 13.0824 1012.64 13.1636 1013.07 13.3387C1013.51 13.5137 1013.9 13.7785 1014.22 14.1159C1014.55 14.4532 1014.8 14.8554 1014.96 15.2963C1015.12 15.737 1015.18 16.2064 1015.15 16.6737V23.81H1011.7V17.5484C1011.7 16.4817 1011.2 15.8843 1010.23 15.8843C1010.02 15.8808 1009.81 15.9239 1009.61 16.0106C1009.41 16.0973 1009.24 16.2256 1009.09 16.3867C1008.95 16.5478 1008.85 16.7379 1008.78 16.9439C1008.72 17.15 1008.7 17.3671 1008.73 17.5804V23.81H1005.47V17.5164C1005.47 16.4497 1004.95 15.8843 1004.01 15.8843C1003.8 15.8826 1003.58 15.9274 1003.38 16.0158C1003.18 16.1042 1003.01 16.234 1002.86 16.3967C1002.72 16.5594 1002.61 16.7511 1002.55 16.9589C1002.48 17.1667 1002.46 17.3859 1002.49 17.6018V23.81H999.07L999.048 13.2922Z" fill="#282938"/>
<path d="M911.736 10.8061C911.736 8.68294 911.096 6.60932 909.899 4.85677C908.702 3.1042 907.005 1.75444 905.029 0.984264C903.053 0.214087 900.891 0.0594109 898.826 0.540493C896.761 1.02158 894.889 2.11599 893.455 3.68037H880.16V31.7778H908.231V18.6465C909.333 17.6597 910.215 16.4514 910.819 15.1005C911.422 13.7495 911.735 12.2862 911.736 10.8061ZM906.335 10.8061C906.337 11.8234 906.038 12.8185 905.475 13.6655C904.912 14.5124 904.111 15.173 903.173 15.5639C902.235 15.9547 901.202 16.058 900.205 15.8608C899.208 15.6637 898.292 15.1748 897.573 14.4562C896.854 13.7375 896.364 12.8214 896.165 11.8237C895.966 10.8261 896.067 9.79174 896.455 8.85162C896.844 7.91147 897.502 7.10783 898.346 6.54239C899.191 5.97696 900.184 5.67514 901.2 5.67514C902.56 5.67514 903.865 6.21537 904.827 7.1773C905.79 8.13923 906.332 9.44429 906.335 10.8061ZM902.83 26.3695H885.561V9.08867H890.824C890.722 9.65557 890.669 10.2301 890.664 10.8061C890.667 13.6032 891.778 16.285 893.753 18.2628C895.729 20.2407 898.407 21.3531 901.2 21.356C901.746 21.353 902.291 21.3067 902.83 21.2173V26.3695Z" fill="#282938"/>
</g>
</g>
<defs>
<clipPath id="clip0_1_104">
<rect width="160" height="32" fill="white" transform="translate(0.5)"/>
</clipPath>
<clipPath id="clip1_1_104">
<rect width="136" height="32" fill="white" transform="translate(235.5)"/>
</clipPath>
<clipPath id="clip2_1_104">
<rect width="153" height="32" fill="white" transform="translate(652.5)"/>
</clipPath>
<clipPath id="clip3_1_104">
<rect width="136" height="32" fill="white" transform="translate(879.5)"/>
</clipPath>
</defs>
</svg>
